<mxfile host="app.diagrams.net" agent="Mozilla/5.0 (Windows NT 10.0; Win64; x64) AppleWebKit/537.36 (KHTML, like Gecko) Chrome/130.0.0.0 Safari/537.36 Edg/130.0.0.0" version="24.8.4">
  <diagram id="R2lEEEUBdFMjLlhIrx00" name="Page-1">
    <mxGraphModel dx="2066" dy="1149" grid="1" gridSize="10" guides="1" tooltips="1" connect="1" arrows="1" fold="1" page="1" pageScale="1" pageWidth="850" pageHeight="1100" math="0" shadow="0" extFonts="Permanent Marker^https://fonts.googleapis.com/css?family=Permanent+Marker">
      <root>
        <mxCell id="0" />
        <mxCell id="1" parent="0" />
        <mxCell id="jmSlWFZychz08hpazryL-1" value="Transaction service" style="rounded=0;whiteSpace=wrap;html=1;" vertex="1" parent="1">
          <mxGeometry x="1080" y="120" width="120" height="60" as="geometry" />
        </mxCell>
        <mxCell id="jmSlWFZychz08hpazryL-2" value="Third-party&amp;nbsp;&lt;div&gt;&lt;span style=&quot;background-color: initial;&quot;&gt;service&lt;/span&gt;&lt;/div&gt;" style="rounded=0;whiteSpace=wrap;html=1;" vertex="1" parent="1">
          <mxGeometry x="450" y="120" width="120" height="60" as="geometry" />
        </mxCell>
        <mxCell id="jmSlWFZychz08hpazryL-3" value="Master-data&amp;nbsp;&lt;div&gt;&lt;span style=&quot;background-color: initial;&quot;&gt;service&lt;/span&gt;&lt;/div&gt;" style="rounded=0;whiteSpace=wrap;html=1;" vertex="1" parent="1">
          <mxGeometry x="1080" y="240" width="120" height="60" as="geometry" />
        </mxCell>
        <mxCell id="jmSlWFZychz08hpazryL-4" value="Logistic&amp;nbsp;&lt;div&gt;&lt;span style=&quot;background-color: initial;&quot;&gt;service&lt;/span&gt;&lt;/div&gt;" style="rounded=0;whiteSpace=wrap;html=1;" vertex="1" parent="1">
          <mxGeometry x="1080" y="360" width="120" height="60" as="geometry" />
        </mxCell>
        <mxCell id="jmSlWFZychz08hpazryL-5" value="Report&lt;div&gt;&lt;span style=&quot;background-color: initial;&quot;&gt;service&lt;/span&gt;&lt;/div&gt;" style="rounded=0;whiteSpace=wrap;html=1;" vertex="1" parent="1">
          <mxGeometry x="1080" y="480" width="120" height="60" as="geometry" />
        </mxCell>
        <mxCell id="jmSlWFZychz08hpazryL-6" value="Notification&lt;div&gt;&lt;span style=&quot;background-color: initial;&quot;&gt;service&lt;/span&gt;&lt;/div&gt;" style="rounded=0;whiteSpace=wrap;html=1;" vertex="1" parent="1">
          <mxGeometry x="1080" y="600" width="120" height="60" as="geometry" />
        </mxCell>
      </root>
    </mxGraphModel>
  </diagram>
</mxfile>
